<svg width="81" height="81" viewBox="0 0 81 81" fill="none" xmlns="http://www.w3.org/2000/svg">
<path d="M40.1279 0.0976562C18.0719 0.0976562 0.12793 18.0417 0.12793 40.0977C0.12793 62.1537 18.0719 80.0977 40.1279 80.0977C62.1839 80.0977 80.1279 62.1537 80.1279 40.0977C80.1279 18.0417 62.1839 0.0976562 40.1279 0.0976562ZM40.1279 75.6532C20.5226 75.6532 4.57237 59.703 4.57237 40.0977C4.57237 20.4923 20.5226 4.5421 40.1279 4.5421C59.7333 4.5421 75.6835 20.4923 75.6835 40.0977C75.6835 59.703 59.7333 75.6532 40.1279 75.6532Z" fill="#FD9201"/>
<path d="M41.6988 18.5263C40.8304 17.6579 39.4242 17.6579 38.5566 18.5263L18.5566 38.5263C17.6882 39.3948 17.6882 40.801 18.5566 41.6686C19.4251 42.5361 20.8313 42.537 21.6988 41.6686L37.9051 25.4623V57.8757C37.9051 59.1032 38.8997 60.0979 40.1273 60.0979C41.3548 60.0979 42.3495 59.1032 42.3495 57.8757V25.4623L58.5557 41.6686C58.9904 42.1032 59.5584 42.3201 60.1273 42.3201C60.6962 42.3201 61.2642 42.1032 61.6988 41.6694C62.5673 40.801 62.5673 39.3948 61.6988 38.5272L41.6988 18.5263Z" fill="#FD9201"/>
</svg>
