<svg width="48" height="49" viewBox="0 0 48 49" fill="none" xmlns="http://www.w3.org/2000/svg">
<ellipse cx="23.5472" cy="24.8293" rx="23.5472" ry="24" fill="#FD9201"/>
<path d="M27.6617 15.4943C25.1961 14.3891 22.3904 14.304 19.8397 15.3243C18.1393 16.0045 16.6089 17.1098 15.5036 18.5551L15.0785 17.0247C14.9935 16.5146 14.5684 16.2595 14.0582 16.3446C13.6331 16.5146 13.378 16.9397 13.4631 17.3648L14.3133 20.8507C14.3983 21.2758 14.7384 21.5309 15.1635 21.5309C15.2485 21.5309 15.3335 21.5309 15.3335 21.5309L18.8194 20.6807C19.2446 20.5957 19.5846 20.0855 19.4146 19.6604C19.4146 19.1503 18.9045 18.8952 18.4794 19.0653L17.034 19.4054C17.9692 18.3001 19.0745 17.4498 20.4349 16.9397C22.5604 16.0895 24.856 16.1745 26.9815 17.1098C29.0221 18.045 30.6375 19.6604 31.4877 21.786C32.3379 23.9115 32.2529 26.2071 31.3177 28.3326C30.3824 30.4582 28.767 31.9886 26.6415 32.8388C23.6657 33.9441 20.3498 33.434 17.9692 31.3084C16.949 30.3732 16.0987 29.2679 15.5886 27.9926C15.4186 27.5675 14.9084 27.3124 14.4833 27.4824C14.0582 27.6525 13.8032 28.1626 13.9732 28.5877C14.5684 30.1181 15.5886 31.5635 16.7789 32.5837C18.6494 34.1992 21.03 35.0494 23.4956 35.0494C24.771 35.0494 25.9613 34.7943 27.1516 34.3692C29.7022 33.3489 31.6577 31.4785 32.763 29.0128C33.8683 26.5472 33.9533 23.7415 32.9331 21.1908C31.9128 18.6402 30.2124 16.5996 27.6617 15.4943Z" fill="#1E1E1E" stroke="#1E1E1E" stroke-width="0.4"/>
<path d="M23.5802 19.7455C23.0701 19.7455 22.73 20.0856 22.73 20.5957V25.697C22.73 25.9521 22.815 26.2071 23.0701 26.3772L26.4709 28.9278C26.641 29.0129 26.811 29.0979 26.9811 29.0979C27.2361 29.0979 27.4912 29.0129 27.6612 28.7578C27.9163 28.4177 27.8313 27.8226 27.4912 27.5675L24.4304 25.2719V20.5957C24.4304 20.0856 24.0903 19.7455 23.5802 19.7455Z" fill="#1E1E1E" stroke="#1E1E1E" stroke-width="0.4"/>
</svg>
