<svg width="48" height="48" viewBox="0 0 48 48" fill="none" xmlns="http://www.w3.org/2000/svg">
<ellipse cx="23.5472" cy="24" rx="23.5472" ry="24" fill="#FD9201"/>
<path d="M30.5246 22.2778C30.5246 23.1339 30.5246 23.9772 30.5246 24.8333C31.8328 24.8333 33.5334 24.8333 34.8852 24.8333C34.8852 23.9772 34.8852 23.1339 34.8852 22.2778C33.5334 22.2778 31.8328 22.2778 30.5246 22.2778Z" fill="#1E1E1E"/>
<path d="M28.3443 30.7239C29.3909 31.6311 30.7536 32.8322 31.8328 33.7778C32.2689 33.1005 32.7049 32.4105 33.141 31.7333C32.0617 30.7878 30.699 29.5866 29.6525 28.6666C29.2164 29.3566 28.7804 30.0466 28.3443 30.7239Z" fill="#1E1E1E"/>
<path d="M33.141 15.3778C32.7049 14.7005 32.2689 14.0105 31.8328 13.3333C30.7536 14.2789 29.3909 15.48 28.3443 16.4C28.7804 17.0772 29.2164 17.7672 29.6525 18.4444C30.699 17.5244 32.0617 16.3361 33.141 15.3778Z" fill="#1E1E1E"/>
<path d="M15.2626 19.7222C14.0634 19.7222 13.0823 20.8722 13.0823 22.2778V24.8333C13.0823 26.2389 14.0634 27.3889 15.2626 27.3889H16.3527V32.5H18.533V27.3889H19.6232L25.0739 31.2222V15.8889L19.6232 19.7222H15.2626ZM20.746 21.9072L22.8936 20.3994V26.7116L20.746 25.2039L20.2227 24.8333H15.2626V22.2778H20.2227L20.746 21.9072Z" fill="#1E1E1E"/>
<path d="M27.7993 23.5555C27.7993 21.8561 27.167 20.3228 26.164 19.275V27.8233C27.167 26.7883 27.7993 25.255 27.7993 23.5555Z" fill="#1E1E1E"/>
</svg>
