<svg width="48" height="49" viewBox="0 0 48 49" fill="none" xmlns="http://www.w3.org/2000/svg">
<path d="M24 0.5C10.7621 0.5 0 11.2621 0 24.5C0 37.7379 10.7621 48.5 24 48.5C37.2379 48.5 48 37.7379 48 24.5C48 11.2621 37.2379 0.5 24 0.5ZM27.6884 37.2326H20.3116V28.1884H11.2674V20.8116H20.3116V11.7674H27.6884V20.8116H36.7326V28.1884H27.6884V37.2326Z" fill="#FD9201"/>
<rect x="8" y="8.28442" width="32" height="33.1448" fill="#FD9201"/>
<path d="M20.8231 15.0157V21.8231H14.0157C13.6593 21.8232 13.335 22.1475 13.335 22.5039V27.496C13.335 27.8524 13.6593 28.1767 14.0157 28.1768H20.8231V34.9842C20.8232 35.3406 21.1475 35.6649 21.5039 35.665H26.496C26.8525 35.6649 27.1767 35.3406 27.1768 34.9842V28.1768H33.9842C34.3406 28.1767 34.6649 27.8524 34.6649 27.496V22.5039C34.6649 22.1475 34.3406 21.8232 33.9842 21.8231H27.1768V15.0157C27.1767 14.6593 26.8525 14.335 26.496 14.335H21.5039C21.1246 14.3559 20.8306 14.7288 20.8231 15.0157ZM22.1846 15.6964H25.8153V22.5039C25.8153 22.8603 26.1396 23.1846 26.496 23.1846H33.3035V26.8153H26.496C26.1396 26.8153 25.8153 27.1396 25.8153 27.496V34.3035H22.1846V27.496C22.1846 27.1396 21.8603 26.8153 21.5039 26.8153H14.6964V23.1846H21.5039C21.8603 23.1846 22.1846 22.8603 22.1846 22.5039V15.6964Z" fill="#1E1E1E" stroke="#1E1E1E" stroke-width="0.668547"/>
</svg>
