<svg width="120" height="33" viewBox="0 0 120 33" fill="none" xmlns="http://www.w3.org/2000/svg">
<path d="M26.4244 19.1757C26.4244 19.3507 26.4244 19.5256 26.418 19.6941V19.7071C26.3337 21.6445 25.6339 23.3163 24.4416 24.8456C22.9512 26.7507 21.0915 28.2475 19.1087 29.5953C17.4433 30.7293 13.6656 32.6927 13.4712 32.7834C13.2768 32.6992 9.49902 30.7293 7.82721 29.5953C5.84437 28.2475 3.98465 26.7507 2.49428 24.8456C1.19182 23.1738 0.472556 21.34 0.504955 19.1757C0.569754 14.899 0.524395 4.99126 0.524395 4.99126L11.6179 0.72103C12.8038 0.260959 14.1192 0.260959 15.3115 0.72103L26.405 4.99126C26.405 4.99126 26.3661 13.9011 26.4115 18.3981V18.4759C26.4115 18.7221 26.4115 18.9554 26.418 19.1757H26.4244Z" fill="url(#paint0_linear_3638_1520)"/>
<path d="M26.4113 19.707C26.3271 21.6445 25.6273 23.3163 24.435 24.8456C22.9446 26.7507 21.0849 28.2475 19.102 29.5953C17.4367 30.7293 13.659 32.6927 13.4646 32.7834V9.97427L26.405 4.99126L26.4049 19.707H26.4113Z" fill="url(#paint1_linear_3638_1520)"/>
<path d="M0.511352 19.707C0.59559 21.6445 1.29542 23.3163 2.48771 24.8456C3.97808 26.7507 5.83781 28.2475 7.82065 29.5953C9.48597 30.7293 13.2637 32.6927 13.4581 32.7834V9.97427L0.524395 4.99126L0.524311 19.707H0.511352Z" fill="url(#paint2_linear_3638_1520)"/>
<path d="M24.8562 5.60036L13.4775 9.98075L2.10537 5.60036L11.7474 1.8874C12.862 1.45972 14.0996 1.45972 15.2142 1.8874L24.8562 5.60036Z" fill="url(#paint3_linear_3638_1520)"/>
<path d="M22.0309 6.68897L13.484 9.98075L4.93705 6.68897L11.7604 4.06462C12.8684 3.63695 14.0996 3.63695 15.2076 4.06462L22.0309 6.68897Z" fill="url(#paint4_linear_3638_1520)"/>
<path d="M19.1993 7.78408L13.484 9.98724L7.76878 7.78408L11.7993 6.22891C12.8814 5.8142 14.0866 5.8142 15.1688 6.22891L19.1993 7.78408Z" fill="url(#paint5_linear_3638_1520)"/>
<path d="M16.3676 8.87271L13.4776 9.98725L10.5875 8.87271L11.7733 8.41912C12.8684 7.99793 14.0802 7.99793 15.1753 8.41912L16.3611 8.87271H16.3676Z" fill="url(#paint6_linear_3638_1520)"/>
<path d="M45.5577 28.0275C41.7479 28.0275 38.6875 27.536 35.9282 26.6443L37.1118 22.6283C38.8556 23.1198 42.2381 23.7798 45.3266 23.7798C49.3324 23.7798 52.2597 23.3164 52.2597 20.9152C52.2597 19.532 51.3073 18.6123 46.7062 18.3104C41.6779 18.0155 36.1594 16.9272 36.1594 11.8862C36.1594 6.84506 41.4818 5.13193 46.5451 5.13193C49.5005 5.13193 52.6589 5.56021 54.7599 6.12189L53.8425 10.2713C52.3998 9.90622 48.8842 9.37965 46.5451 9.37965C42.5393 9.37965 40.6274 10.3345 40.6274 11.7176C40.6274 13.1008 43.0575 13.824 46.9723 14.0556C51.8676 14.3856 56.7348 15.502 56.7348 20.6133C56.7348 26.4758 50.8171 28.0275 45.5647 28.0275H45.5577Z" fill="#1E1E1E"/>
<path d="M74.67 27.8941L73.0242 23.0496H63.4648L61.8191 27.8941H57.1549L65.1386 5.56022L71.2174 5.23024L79.3341 27.8941H74.67ZM64.8795 18.837H71.6166L68.262 8.95138L64.8795 18.837Z" fill="#1E1E1E"/>
<path d="M98.656 9.44987H85.4479V13.9644H94.5521L94.1879 18.184H85.4479V27.9011H80.9798V5.23024H99.0201L98.656 9.44987Z" fill="#1E1E1E"/>
<path d="M119.126 9.44987H105.918V13.9644H115.05L114.658 18.184H105.918V23.6885H119.519L119.126 27.9081H101.478V5.23024H119.519L119.126 9.44987Z" fill="#1E1E1E"/>
<defs>
<linearGradient id="paint0_linear_3638_1520" x1="0.508723" y1="16.5773" x2="119.519" y2="16.5773" gradientUnits="userSpaceOnUse">
<stop stop-color="#750000"/>
<stop offset="1" stop-color="#CD0000"/>
</linearGradient>
<linearGradient id="paint1_linear_3638_1520" x1="-34.2831" y1="10.8561" x2="-20.887" y2="61.3659" gradientUnits="userSpaceOnUse">
<stop stop-color="#B80000"/>
<stop offset="1" stop-color="#E30000"/>
</linearGradient>
<linearGradient id="paint2_linear_3638_1520" x1="-8.37156" y1="20.0365" x2="7.42468" y2="-29.5443" gradientUnits="userSpaceOnUse">
<stop stop-color="#B80000"/>
<stop offset="0.21" stop-color="#C00000"/>
<stop offset="0.56" stop-color="#D80000"/>
<stop offset="0.99" stop-color="#FE0000"/>
<stop offset="1" stop-color="#FF0000"/>
</linearGradient>
<linearGradient id="paint3_linear_3638_1520" x1="60.0282" y1="32.7834" x2="60.0282" y2="0.363497" gradientUnits="userSpaceOnUse">
<stop stop-color="#A20102"/>
<stop offset="0.14" stop-color="#A30401"/>
<stop offset="0.27" stop-color="#A71001"/>
<stop offset="0.4" stop-color="#AF2301"/>
<stop offset="0.52" stop-color="#B93D01"/>
<stop offset="0.64" stop-color="#C66001"/>
<stop offset="0.77" stop-color="#D78A00"/>
<stop offset="0.89" stop-color="#E9BB00"/>
<stop offset="1" stop-color="#FFF200"/>
</linearGradient>
<linearGradient id="paint4_linear_3638_1520" x1="60.0112" y1="32.7834" x2="60.0112" y2="0.359141" gradientUnits="userSpaceOnUse">
<stop stop-color="#A20102"/>
<stop offset="0.1" stop-color="#A40701"/>
<stop offset="0.23" stop-color="#AB1801"/>
<stop offset="0.38" stop-color="#B63501"/>
<stop offset="0.54" stop-color="#C55E01"/>
<stop offset="0.72" stop-color="#D99100"/>
<stop offset="0.91" stop-color="#F1CF00"/>
<stop offset="1" stop-color="#FFF200"/>
</linearGradient>
<linearGradient id="paint5_linear_3638_1520" x1="60.0112" y1="33.6608" x2="60.0112" y2="0.375977" gradientUnits="userSpaceOnUse">
<stop stop-color="#A20102"/>
<stop offset="0.1" stop-color="#A40701"/>
<stop offset="0.23" stop-color="#AB1801"/>
<stop offset="0.38" stop-color="#B63501"/>
<stop offset="0.54" stop-color="#C55E01"/>
<stop offset="0.72" stop-color="#D99100"/>
<stop offset="0.91" stop-color="#F1CF00"/>
<stop offset="1" stop-color="#FFF200"/>
</linearGradient>
<linearGradient id="paint6_linear_3638_1520" x1="0.637331" y1="16.51" x2="119.519" y2="16.51" gradientUnits="userSpaceOnUse">
<stop stop-color="#B80000"/>
<stop offset="1" stop-color="#E30000"/>
</linearGradient>
</defs>
</svg>
