<svg width="96" height="43" viewBox="0 0 96 43" fill="none" xmlns="http://www.w3.org/2000/svg">
<path d="M45.7199 14.0098C42.1068 23.0415 37.2103 31.3491 31.0411 38.9327C30.038 40.0795 28.6252 40.9727 27.0775 41.554C27.0074 41.5804 26.9427 41.6015 26.8725 41.6227C24.7209 42.3784 22.3427 42.3731 20.191 41.6227C20.1209 41.6015 20.0562 41.5804 19.9915 41.554C19.792 41.48 19.5979 41.4007 19.4037 41.3162C18.0933 40.7401 16.9069 39.9316 16.0333 38.9327C9.85872 31.3491 4.96219 23.0415 1.34911 14.0098C0.890732 12.7467 0.772093 11.3093 0.933873 9.8824C1.24665 7.12375 2.74581 4.59764 5.0269 2.95936C5.03768 2.95936 5.04847 2.9435 5.06465 2.93822C6.22946 2.1138 7.53448 1.51662 8.85029 1.27352C18.6434 -0.174506 28.431 -0.174506 38.2187 1.27352C39.5561 1.51133 40.8827 2.13494 42.0637 2.9805C44.4904 4.73504 46.0003 7.4884 46.1783 10.4373C46.2538 11.6792 46.1135 12.9106 45.7199 14.0098Z" fill="white"/>
<path d="M40.7908 6.15137V7.07092C40.7908 9.49134 40.2354 11.4203 39.1299 12.8419C38.0298 14.2635 36.2017 14.9769 33.6564 14.9769H28.6466C27.9024 14.9769 27.3577 15.2042 27.0072 15.6481C26.6729 16.0867 26.4949 16.7526 26.4841 17.651V17.7303L26.8724 41.6227C24.7207 42.3784 22.3426 42.3731 20.1909 41.6227L20.5792 17.7303C20.5792 16.7896 20.4012 16.0973 20.0561 15.6481C19.7055 15.2042 19.1609 14.9769 18.4167 14.9769H13.4069C10.8616 14.9769 9.03887 14.2688 7.93338 12.8419C6.82788 11.4203 6.27783 9.49662 6.27783 7.07092V6.15137H11.7514V7.07092C11.7514 7.75265 11.9024 8.22828 12.2044 8.50309C12.501 8.77261 12.927 8.90473 13.4824 8.90473H19.355C21.9004 8.90473 23.7231 9.61817 24.8286 11.0398C25.7669 12.25 26.3008 13.8196 26.441 15.7432C26.4356 13.3439 25.8855 11.4361 24.7908 10.0251C24.6452 9.83485 24.4834 9.66045 24.3109 9.49662C25.2492 9.10555 26.3817 8.90473 27.7136 8.90473H33.5862C34.1363 8.90473 34.5623 8.77261 34.8643 8.4978C35.1609 8.22828 35.3119 7.75265 35.3119 7.07092V6.15137H40.7908Z" fill="#1E1E1E"/>
<path d="M56.2779 12.7096C56.1377 12.7096 56.0622 12.7836 56.0622 12.9368V17.524C56.0622 17.9574 56.1646 18.2639 56.3749 18.4488C56.5799 18.6338 56.9142 18.7237 57.3672 18.7237H58.4134C58.505 18.7237 58.5751 18.7554 58.6291 18.8188C58.683 18.8822 58.7046 18.9562 58.7046 19.046L58.683 20.2087C58.683 20.4518 58.5428 20.5997 58.257 20.6632C58.0251 20.6896 57.777 20.7107 57.5074 20.7319C57.2432 20.753 56.9789 20.7636 56.7093 20.7689C56.445 20.7741 56.1862 20.7794 55.9435 20.7794C55.0645 20.7794 54.3635 20.5733 53.8458 20.1611C53.3281 19.7489 53.0692 19.1359 53.0692 18.3273V13.0003C53.0692 12.81 52.983 12.7149 52.8158 12.7149H51.6294C51.3813 12.7149 51.2627 12.6092 51.2627 12.3925V10.9868C51.2627 10.7965 51.3813 10.7014 51.6132 10.7014H52.9506C53.0692 10.7014 53.1339 10.6327 53.1447 10.49L53.4144 7.59923C53.4251 7.38255 53.5222 7.27686 53.7056 7.27686H55.8195C56.0244 7.27686 56.1323 7.39841 56.1323 7.63622V10.49C56.1323 10.6168 56.197 10.6802 56.3264 10.6802H58.3648C58.5967 10.6802 58.7153 10.7807 58.7153 10.9868V12.3925C58.7153 12.6092 58.5859 12.7149 58.3271 12.7149H56.2671L56.2779 12.7096Z" fill="white"/>
<path d="M62.9644 17.8358C63.1909 18.1952 63.4929 18.4753 63.8758 18.6708C64.2586 18.8664 64.69 18.9668 65.1646 18.9668C65.6392 18.9668 66.0598 18.8664 66.4534 18.6708C66.8471 18.4753 67.2462 18.1476 67.6452 17.6931C67.6991 17.6403 67.7423 17.6139 67.78 17.6086C67.8178 17.6033 67.8879 17.6244 67.9957 17.6773L69.3924 18.248C69.5758 18.322 69.592 18.4489 69.4518 18.6285C69.0365 19.2099 68.6051 19.6749 68.1521 20.0184C67.6991 20.3619 67.1976 20.605 66.6476 20.753C66.0975 20.901 65.4774 20.9697 64.7925 20.9697C63.7841 20.9697 62.8835 20.753 62.0962 20.3249C61.3089 19.8969 60.6833 19.2944 60.2249 18.5281C59.7666 17.7618 59.5347 16.8846 59.5347 15.891C59.5347 14.8024 59.7719 13.8511 60.2411 13.0478C60.7103 12.2445 61.3466 11.6157 62.1339 11.1717C62.9213 10.7278 63.7895 10.5059 64.7332 10.5059C65.7308 10.5059 66.6044 10.7172 67.354 11.1453C68.1036 11.5681 68.6968 12.1758 69.1282 12.9633C69.5596 13.7507 69.7807 14.7072 69.7807 15.8382C69.7807 15.9756 69.7699 16.0866 69.743 16.1606C69.716 16.2345 69.6189 16.2821 69.4518 16.2927H62.8511C62.7757 16.2927 62.7163 16.3191 62.6786 16.3667C62.6408 16.4195 62.6193 16.4935 62.6193 16.5939C62.6193 17.0642 62.7325 17.4765 62.959 17.8411L62.9644 17.8358ZM66.5289 14.6861C66.6692 14.6861 66.7608 14.6703 66.7986 14.6385C66.8363 14.6068 66.8579 14.5328 66.8579 14.4219C66.8579 14.1048 66.7824 13.7824 66.6368 13.4495C66.4858 13.1218 66.2701 12.8417 65.9789 12.6198C65.6877 12.3978 65.3156 12.2868 64.8626 12.2868C64.4366 12.2868 64.0537 12.3872 63.7194 12.5933C63.385 12.7942 63.1262 13.0795 62.9428 13.4389C62.7595 13.7983 62.6732 14.2105 62.6732 14.665L66.5343 14.6861H66.5289Z" fill="white"/>
<path d="M78.2255 10.9286C78.8133 11.2139 79.2986 11.5786 79.6707 12.0225C80.0482 12.4664 80.3124 12.9209 80.4688 13.3913C80.5605 13.6449 80.4796 13.7771 80.2369 13.7929L78.1985 13.9832C78.0583 13.9937 77.9612 13.925 77.9073 13.7718C77.7887 13.5287 77.6592 13.3067 77.519 13.1059C77.3788 12.9051 77.2009 12.736 76.9959 12.6091C76.791 12.4823 76.516 12.4189 76.1817 12.4189C75.7395 12.4189 75.3512 12.5404 75.0168 12.7782C74.6825 13.0213 74.4183 13.386 74.2295 13.8722C74.0408 14.3584 73.9491 14.9767 73.9491 15.7271C73.9491 16.4776 74.0462 17.117 74.2403 17.6085C74.4344 18.1053 74.7095 18.4699 75.0654 18.713C75.4213 18.9561 75.8473 19.0724 76.338 19.0724C76.9097 19.0724 77.3573 18.9244 77.6862 18.6337C78.0152 18.3431 78.3279 17.9467 78.6299 17.4552C78.6677 17.3918 78.7054 17.3548 78.7486 17.339C78.7863 17.3284 78.8564 17.3337 78.9643 17.3601L80.3987 17.6825C80.5389 17.7195 80.5875 17.841 80.5335 18.0419C80.4311 18.3219 80.2693 18.6337 80.0482 18.972C79.8271 19.3155 79.5413 19.6326 79.1854 19.9232C78.8294 20.2139 78.398 20.457 77.8857 20.6578C77.3734 20.8533 76.7748 20.9538 76.09 20.9538C75.0923 20.9538 74.2079 20.7371 73.4314 20.2984C72.6549 19.8598 72.0455 19.2521 71.5979 18.4699C71.1503 17.6878 70.9292 16.7841 70.9292 15.7588C70.9292 14.7336 71.1557 13.8035 71.6087 13.0108C72.0617 12.218 72.6764 11.5997 73.453 11.1558C74.2295 10.7119 75.1085 10.4899 76.0954 10.4899C76.9366 10.4899 77.6485 10.6326 78.2416 10.918L78.2255 10.9286Z" fill="white"/>
<path d="M82.0977 20.3936V7.02318C82.0977 6.78008 82.2001 6.66382 82.4104 6.66382H84.7401C84.9342 6.66382 85.0313 6.76951 85.0313 6.98619V11.8587C85.0313 11.9327 85.0528 11.9803 85.0906 12.0014C85.1283 12.0226 85.1876 12.0014 85.2631 11.9327C85.6622 11.5786 86.0451 11.2986 86.401 11.0977C86.7569 10.8969 87.1128 10.7437 87.4687 10.6485C87.8247 10.5534 88.186 10.5058 88.5473 10.5058C89.5287 10.5058 90.2891 10.7701 90.8176 11.3038C91.3461 11.8376 91.6157 12.5828 91.6157 13.5499V20.3249C91.6157 20.6314 91.4593 20.7794 91.1519 20.7794H88.9949C88.8654 20.7794 88.7738 20.753 88.7144 20.6949C88.6551 20.6367 88.6282 20.5416 88.6282 20.3989V13.9674C88.6282 13.534 88.5095 13.2011 88.2776 12.9685C88.0458 12.736 87.6952 12.6145 87.2315 12.6145C86.9618 12.6145 86.7084 12.6567 86.4765 12.7466C86.2446 12.8364 86.0181 12.9633 85.797 13.1377C85.5759 13.3068 85.344 13.5287 85.096 13.793V20.3355C85.096 20.6262 84.9288 20.7741 84.5891 20.7741H82.5129C82.2433 20.7741 82.103 20.6473 82.103 20.3936H82.0977Z" fill="white"/>
<path d="M56.2779 33.8486C56.1377 33.8486 56.0622 33.9226 56.0622 34.0759V38.663C56.0622 39.0964 56.1646 39.4029 56.3749 39.5879C56.5799 39.7728 56.9142 39.8627 57.3672 39.8627H58.4134C58.505 39.8627 58.5751 39.8944 58.6291 39.9578C58.683 40.0212 58.7046 40.0952 58.7046 40.1851L58.683 41.3477C58.683 41.5908 58.5428 41.7388 58.257 41.8022C58.0251 41.8286 57.777 41.8498 57.5074 41.8709C57.2432 41.892 56.9789 41.9026 56.7093 41.9079C56.445 41.9132 56.1862 41.9185 55.9435 41.9185C55.0645 41.9185 54.3635 41.7124 53.8458 41.3001C53.3281 40.8879 53.0692 40.2749 53.0692 39.4663V34.1393C53.0692 33.949 52.983 33.8539 52.8158 33.8539H51.6294C51.3813 33.8539 51.2627 33.7482 51.2627 33.5315V32.1258C51.2627 31.9355 51.3813 31.8404 51.6132 31.8404H52.9506C53.0692 31.8404 53.1339 31.7717 53.1447 31.629L53.4144 28.7383C53.4251 28.5216 53.5222 28.4159 53.7056 28.4159H55.8195C56.0244 28.4159 56.1323 28.5374 56.1323 28.7753V31.629C56.1323 31.7559 56.197 31.8193 56.3264 31.8193H58.3648C58.5967 31.8193 58.7153 31.9197 58.7153 32.1258V33.5315C58.7153 33.7482 58.5859 33.8539 58.3271 33.8539H56.2671L56.2779 33.8486Z" fill="white"/>
<path d="M60.4301 41.8181C60.3654 41.7547 60.333 41.6595 60.333 41.5327V32.1892C60.333 31.9461 60.4355 31.8299 60.6458 31.8299H62.9161C63.121 31.8299 63.2289 31.9356 63.2289 32.1522V33.2726C63.2289 33.3466 63.2558 33.3942 63.3151 33.4153C63.3745 33.4364 63.4338 33.4047 63.4985 33.3307C63.7573 32.9872 64.0539 32.6913 64.3829 32.4376C64.7118 32.184 65.0516 31.9884 65.4021 31.8457C65.7526 31.7083 66.0816 31.6343 66.3944 31.6343C66.8581 31.6343 67.0954 31.74 67.0954 31.9567V34.1657C67.0954 34.3666 66.9983 34.4511 66.8042 34.4141C66.5723 34.3507 66.3296 34.3084 66.087 34.2926C65.8443 34.2767 65.6286 34.2662 65.4452 34.2662C65.2134 34.2662 64.9707 34.3084 64.7172 34.3983C64.4638 34.4881 64.2373 34.6149 64.027 34.7788C63.8221 34.9426 63.6495 35.1223 63.5201 35.3125C63.3906 35.5028 63.3259 35.7036 63.3259 35.9203V41.4746C63.3259 41.7652 63.1588 41.9132 62.819 41.9132H60.7429C60.6026 41.9132 60.4948 41.8815 60.4301 41.8181Z" fill="white"/>
<path d="M71.6357 30.1388C71.6357 30.4558 71.4632 30.6144 71.1126 30.6144H69.0149C68.8477 30.6144 68.7345 30.5774 68.6752 30.4981C68.6158 30.4241 68.5889 30.3132 68.5889 30.1758V28.1781C68.5889 27.9244 68.6967 27.7976 68.9178 27.7976H71.3229C71.5279 27.7976 71.6357 27.9192 71.6357 28.157V30.1335V30.1388ZM71.598 41.4587C71.598 41.6225 71.5602 41.7388 71.4793 41.8128C71.4038 41.8815 71.2636 41.9185 71.0695 41.9185H69.0311C68.8639 41.9185 68.7506 41.8868 68.6913 41.8234C68.632 41.7599 68.605 41.6595 68.605 41.5168V32.1945C68.605 31.9514 68.7075 31.8352 68.9178 31.8352H71.3068C71.5009 31.8352 71.598 31.9409 71.598 32.1575V41.4587Z" fill="white"/>
<path d="M74.1976 41.9132C74.0304 41.9132 73.9118 41.8815 73.8471 41.8181C73.7824 41.7547 73.75 41.649 73.75 41.4957V28.157C73.75 27.9139 73.8525 27.7976 74.0628 27.7976H76.4517C76.6459 27.7976 76.7429 27.9139 76.7429 28.1411V32.575C76.7429 32.7283 76.7807 32.8076 76.8508 32.8128C76.9209 32.8181 77.0018 32.7864 77.0934 32.7072C77.2984 32.5169 77.5356 32.3425 77.7999 32.184C78.0641 32.0254 78.3661 31.8933 78.7005 31.7929C79.0348 31.6925 79.4069 31.6396 79.806 31.6396C80.685 31.6396 81.4291 31.8563 82.0277 32.2844C82.6263 32.7124 83.0847 33.3202 83.3975 34.0918C83.7102 34.8633 83.8612 35.7723 83.8612 36.8134C83.8612 38.4253 83.4783 39.7095 82.718 40.666C81.9522 41.6225 80.8629 42.1035 79.4393 42.1035C78.9755 42.1035 78.5441 42.0295 78.1504 41.8868C77.7567 41.7388 77.4116 41.5486 77.1204 41.3055C76.8292 41.0624 76.5811 40.8193 76.3708 40.5656C76.3169 40.5022 76.2684 40.4758 76.2252 40.481C76.1821 40.4863 76.1497 40.5339 76.1389 40.6237L75.9071 41.538C75.8424 41.7917 75.6914 41.9185 75.4595 41.9185H74.1976V41.9132ZM76.7429 38.4305C76.7429 38.8111 76.8346 39.1387 77.0126 39.4188C77.1959 39.6989 77.4278 39.9156 77.719 40.0741C78.0102 40.2327 78.3284 40.3119 78.6789 40.3119C79.1049 40.3119 79.4824 40.1957 79.806 39.9684C80.1295 39.7412 80.3776 39.3712 80.5555 38.8533C80.7281 38.3407 80.8198 37.6695 80.8198 36.8451C80.8198 35.6772 80.6472 34.8263 80.2967 34.2979C79.9462 33.7641 79.4339 33.4999 78.7652 33.4999C78.3499 33.4999 77.9778 33.5897 77.6381 33.7747C77.3038 33.9596 77.0018 34.2027 76.7429 34.5093V38.4305Z" fill="white"/>
<path d="M88.5313 38.9749C88.7578 39.3342 89.0598 39.6143 89.4426 39.8099C89.8255 40.0054 90.2569 40.1058 90.7315 40.1058C91.206 40.1058 91.6267 40.0054 92.0203 39.8099C92.414 39.6143 92.8131 39.2867 93.2121 38.8322C93.266 38.7793 93.3092 38.7529 93.3469 38.7476C93.3847 38.7423 93.4548 38.7635 93.5626 38.8163L94.9593 39.3871C95.1427 39.4611 95.1589 39.5879 95.0187 39.7676C94.6034 40.3489 94.172 40.814 93.719 41.1575C93.266 41.501 92.7645 41.7441 92.2145 41.8921C91.6644 42.04 91.0443 42.1087 90.3594 42.1087C89.351 42.1087 88.4504 41.892 87.6631 41.464C86.8757 41.0359 86.2502 40.4335 85.7918 39.6672C85.3334 38.9009 85.1016 38.0236 85.1016 37.0301C85.1016 35.9414 85.3388 34.9902 85.808 34.1869C86.2772 33.3836 86.9135 32.7547 87.7008 32.3108C88.4881 31.8669 89.3564 31.6449 90.3001 31.6449C91.2977 31.6449 92.1713 31.8563 92.9209 32.2844C93.6705 32.7071 94.2637 33.3149 94.6951 34.1023C95.1265 34.8897 95.3476 35.8463 95.3476 36.9772C95.3476 37.1146 95.3368 37.2256 95.3099 37.2996C95.2829 37.3736 95.1858 37.4211 95.0187 37.4317H88.418C88.3425 37.4317 88.2832 37.4581 88.2455 37.5057C88.2077 37.5585 88.1862 37.6325 88.1862 37.7329C88.1862 38.2033 88.2994 38.6155 88.5259 38.9801L88.5313 38.9749ZM92.0958 35.8251C92.236 35.8251 92.3277 35.8093 92.3655 35.7776C92.4032 35.7459 92.4248 35.6719 92.4248 35.5609C92.4248 35.2438 92.3493 34.9214 92.2037 34.5885C92.0527 34.2609 91.837 33.9808 91.5458 33.7588C91.2546 33.5368 90.8825 33.4259 90.4295 33.4259C90.0035 33.4259 89.6206 33.5263 89.2863 33.7324C88.9519 33.9332 88.6931 34.2186 88.5097 34.5779C88.3264 34.9373 88.2401 35.3495 88.2401 35.804L92.1012 35.8251H92.0958Z" fill="white"/>
</svg>
