<svg width="1024" height="1024" viewBox="0 0 1024 1024" fill="none" xmlns="http://www.w3.org/2000/svg">
<path d="M788.971 0H235.029C105.226 0 0 105.226 0 235.029V788.971C0 918.774 105.226 1024 235.029 1024H788.971C918.774 1024 1024 918.774 1024 788.971V235.029C1024 105.226 918.774 0 788.971 0Z" fill="white"/>
<path d="M826.027 573.246C826.027 577.485 826.027 581.725 825.87 585.807V586.121C823.829 633.069 806.871 673.579 777.98 710.634C741.867 756.797 696.803 793.067 648.757 825.727C608.404 853.204 516.864 900.78 512.153 902.978C507.443 900.937 415.903 853.204 375.393 825.727C327.346 793.067 282.283 756.797 246.169 710.634C214.609 670.124 197.18 625.689 197.965 573.246C199.536 469.616 198.436 229.539 198.436 229.539L467.247 126.066C495.981 114.918 527.855 114.918 556.746 126.066L825.556 229.539C825.556 229.539 824.614 445.435 825.713 554.404V556.288C825.713 562.255 825.713 567.907 825.87 573.246H826.027Z" fill="url(#paint0_linear_3690_10252)"/>
<path d="M825.713 586.12C823.671 633.068 806.714 673.578 777.823 710.633C741.709 756.796 696.646 793.067 648.599 825.726C608.246 853.203 516.706 900.779 511.996 902.977V350.283L825.556 229.538V586.12H825.713Z" fill="url(#paint1_linear_3690_10252)"/>
<path d="M198.122 586.12C200.163 633.068 217.121 673.578 246.011 710.633C282.125 756.796 327.188 793.067 375.235 825.726C415.588 853.203 507.128 900.779 511.838 902.977V350.283L198.436 229.538V586.12H198.122Z" fill="url(#paint2_linear_3690_10252)"/>
<path d="M788.029 244.298L512.31 350.44L236.748 244.298L470.387 154.328C497.394 143.965 527.384 143.965 554.39 154.328L788.029 244.298Z" fill="url(#paint3_linear_3690_10252)"/>
<path d="M719.57 270.676L512.467 350.44L305.363 270.676L470.7 207.085C497.55 196.722 527.383 196.722 554.233 207.085L719.57 270.676Z" fill="url(#paint4_linear_3690_10252)"/>
<path d="M650.954 297.212L512.467 350.597L373.979 297.212L471.643 259.528C497.864 249.479 527.069 249.479 553.291 259.528L650.954 297.212Z" fill="url(#paint5_linear_3690_10252)"/>
<path d="M582.339 323.591L512.31 350.598L442.281 323.591L471.015 312.6C497.55 302.394 526.912 302.394 553.448 312.6L582.182 323.591H582.339Z" fill="url(#paint6_linear_3690_10252)"/>
<defs>
<linearGradient id="paint0_linear_3690_10252" x1="197.965" y1="510.283" x2="826.027" y2="510.283" gradientUnits="userSpaceOnUse">
<stop stop-color="#750000"/>
<stop offset="1" stop-color="#CD0000"/>
</linearGradient>
<linearGradient id="paint1_linear_3690_10252" x1="420.299" y1="447.319" x2="857.587" y2="656.463" gradientUnits="userSpaceOnUse">
<stop stop-color="#B80000"/>
<stop offset="1" stop-color="#E30000"/>
</linearGradient>
<linearGradient id="paint2_linear_3690_10252" x1="174.726" y1="638.092" x2="564.753" y2="482.804" gradientUnits="userSpaceOnUse">
<stop stop-color="#B80000"/>
<stop offset="0.21" stop-color="#C00000"/>
<stop offset="0.56" stop-color="#D80000"/>
<stop offset="0.99" stop-color="#FE0000"/>
<stop offset="1" stop-color="#FF0000"/>
</linearGradient>
<linearGradient id="paint3_linear_3690_10252" x1="512.467" y1="350.44" x2="512.467" y2="146.477" gradientUnits="userSpaceOnUse">
<stop stop-color="#A20102"/>
<stop offset="0.14" stop-color="#A30401"/>
<stop offset="0.27" stop-color="#A71001"/>
<stop offset="0.4" stop-color="#AF2301"/>
<stop offset="0.52" stop-color="#B93D01"/>
<stop offset="0.64" stop-color="#C66001"/>
<stop offset="0.77" stop-color="#D78A00"/>
<stop offset="0.89" stop-color="#E9BB00"/>
<stop offset="1" stop-color="#FFF200"/>
</linearGradient>
<linearGradient id="paint4_linear_3690_10252" x1="512.467" y1="350.44" x2="512.467" y2="199.234" gradientUnits="userSpaceOnUse">
<stop stop-color="#A20102"/>
<stop offset="0.1" stop-color="#A40701"/>
<stop offset="0.23" stop-color="#AB1801"/>
<stop offset="0.38" stop-color="#B63501"/>
<stop offset="0.54" stop-color="#C55E01"/>
<stop offset="0.72" stop-color="#D99100"/>
<stop offset="0.91" stop-color="#F1CF00"/>
<stop offset="1" stop-color="#FFF200"/>
</linearGradient>
<linearGradient id="paint5_linear_3690_10252" x1="512.467" y1="353.267" x2="512.467" y2="251.992" gradientUnits="userSpaceOnUse">
<stop stop-color="#A20102"/>
<stop offset="0.1" stop-color="#A40701"/>
<stop offset="0.23" stop-color="#AB1801"/>
<stop offset="0.38" stop-color="#B63501"/>
<stop offset="0.54" stop-color="#C55E01"/>
<stop offset="0.72" stop-color="#D99100"/>
<stop offset="0.91" stop-color="#F1CF00"/>
<stop offset="1" stop-color="#FFF200"/>
</linearGradient>
<linearGradient id="paint6_linear_3690_10252" x1="442.438" y1="327.674" x2="582.339" y2="327.674" gradientUnits="userSpaceOnUse">
<stop stop-color="#B80000"/>
<stop offset="1" stop-color="#E30000"/>
</linearGradient>
</defs>
</svg>
